Simulation
nRows=38
nColumns=15
endheader
time  TH_x TH_y TH_z SC_y  SC_z  SC_x  AC_y  AC_z  AC_x  GH_y  GH_z  GH_yy  EL_x  PS_y
0.0  0.000000  0.000000  0.000000  -40.51865533324979  0.16437773546468806  8.099093198924837  47.89062583270982  -1.994066870340988  -5.001001593211057  47.56153430601493  6.969960664594184  -23.086583169378358  22.99597063983309  120.000000
0.03099999999999998  0.000000  0.000000  0.000000  -39.52412030811523  1.1800895446201813  8.077153472935677  47.42924735046376  -1.9113340301077542  -4.419499136226849  47.3216173533886  8.050679135790704  -23.15019714397604  23.17521052035684  120.000000
0.06199999999999996  0.000000  0.000000  0.000000  -38.670211831055106  1.892774520590795  8.08026101162472  47.006250976469616  -1.9163336447752828  -4.130030966765485  47.07558486643606  9.027041182089482  -23.207911956288093  23.270579558062533  120.000000
0.09299999999999994  0.000000  0.000000  0.000000  -38.06466394668155  2.379988009741617  8.144207447074487  46.63934704668156  -2.0321010569612086  -4.04751072179872  46.85278839642689  9.91684376152103  -23.24234915720418  23.31740786651138  120.000000
0.12399999999999992  0.000000  0.000000  0.000000  -37.69691891850071  2.667183221162909  8.319137581278085  46.3464598284441  -2.242431115974523  -4.160502558623873  46.661419220594375  10.736418044021288  -23.255687924607663  23.329097530506505  120.000000
0.1549999999999999  0.000000  0.000000  0.000000  -37.53499591854786  2.804326623890443  8.635923345417211  46.14319720587262  -2.535062737318194  -4.4305760211761696  46.49674998600982  11.521378266131823  -23.265044083982136  23.30507342753353  120.000000
0.1859999999999999  0.000000  0.000000  0.000000  -37.53688175181358  2.8469977618264624  9.108171732852917  46.02856328498729  -2.8939718145059854  -4.811415747259623  46.34367595140214  12.311608449897868  -23.295290533246284  23.265303096105576  120.000000
0.21699999999999986  0.000000  0.000000  0.000000  -37.65808253824549  2.845500076939639  9.73678369927613  45.99717530369496  -3.3016281125799565  -5.262432071256233  46.18582361444055  13.148722006186075  -23.367557277329066  23.231097978292635  120.000000
0.24799999999999983  0.000000  0.000000  0.000000  -37.86104790659457  2.840960061294494  10.514718373168371  46.037974199669456  -3.7427589206606147  -5.748626906956709  46.00514611005163  14.068150313420764  -23.49993314831853  23.223091231828562  120.000000
0.2789999999999998  0.000000  0.000000  0.000000  -38.11999281219396  2.8602594468868303  11.429956410839171  46.1399632868281  -4.204572989608128  -6.2454204598929195  45.78361247155068  15.10041979602642  -23.70685652329829  23.25895769474324  120.000000
0.3099999999999998  0.000000  0.000000  0.000000  -38.41537337310022  2.9220712707540675  12.469248908983946  46.28951293161242  -4.679021199026017  -6.735028746316665  45.506788152413684  16.262073157114965  -23.995631982500104  23.347588740394244  120.000000
0.34099999999999975  0.000000  0.000000  0.000000  -38.72826294268579  3.041632212434032  13.615918765860012  46.471595902629474  -5.16305356073609  -7.2051044355797496  45.16478091127087  17.55637957204678  -24.367418972504932  23.48768071592768  120.000000
0.3719999999999998  0.000000  0.000000  0.000000  -39.045570218918535  3.225415877026201  14.853445826083696  46.67372651104061  -5.6507784938583185  -7.6479667430122715  44.75495755709742  18.973114902276873  -24.814542618965287  23.669046411558096  120.000000
0.40299999999999975  0.000000  0.000000  0.000000  -39.35557513099954  3.470358495731562  16.164445339142684  46.883794290701516  -6.13402767198885  -8.062751207831894  44.28018059200641  20.496820908695323  -25.3237763013969  23.875470733624173  120.000000
0.4339999999999997  0.000000  0.000000  0.000000  -39.64535682685322  3.7681603501476704  17.533887973464797  47.09183365635116  -6.60554785915975  -8.453992367150478  43.74746598945071  22.107376071692162  -25.88021383131864  24.08633595850553  120.000000
0.4649999999999997  0.000000  0.000000  0.000000  -39.90316142992076  4.1082111367938525  18.942784909969024  47.287184620915426  -7.055515970793723  -8.826031331848775  43.16917737957119  23.783689785701704  -26.466314621816384  24.280298611263003  120.000000
0.49599999999999966  0.000000  0.000000  0.000000  -40.12048818521325  4.4811376069090585  20.362757919834237  47.46253025343949  -7.465450350971756  -9.17604388441023  42.56148348586594  25.502582033281453  -27.064978240701286  24.439971029740732  120.000000
0.5269999999999997  0.000000  0.000000  0.000000  -40.2963186821548  4.878968771414663  21.767221658252506  47.61353713206059  -7.812811331953078  -9.498746621589566  41.944267951070124  27.23843058250565  -27.65799581198673  24.554857897660064  120.000000
0.5579999999999996  0.000000  0.000000  0.000000  -40.43898549638286  5.293317858619545  23.141335990988694  47.741379766017374  -8.078128367274816  -9.793156831839493  41.338551456577015  28.965471582518372  -28.22932395039327  24.62267857927666  120.000000
0.5889999999999996  0.000000  0.000000  0.000000  -40.56450755401689  5.716374348617716  24.48319699626542  47.84908173252841  -8.248844774538389  -10.06184093430335  40.765510877001574  30.658215429742125  -28.764219136805846  24.647794102947397  120.000000
0.6199999999999996  0.000000  0.000000  0.000000  -40.69506378301095  6.144745700283125  25.804352616785895  47.94076624892272  -8.328860911452999  -10.309572034337949  40.24364752412269  32.295624459045726  -29.25435227095143  24.636277658359948  120.000000
0.6509999999999996  0.000000  0.000000  0.000000  -40.85810566009508  6.582429688594606  27.12910631121058  48.01851096110645  -8.348094256960298  -10.540404735977642  39.783903486413564  33.86590599310572  -29.701675046462977  24.591507105041565  120.000000
0.6819999999999995  0.000000  0.000000  0.000000  -41.08254714410635  7.034479342894367  28.484719830137536  48.08623679947432  -8.348094257412777  -10.756938330995535  39.39066123366978  35.366780704850974  -30.12272283764756  24.513874275341376  120.000000
0.7129999999999995  0.000000  0.000000  0.000000  -41.395655399627806  7.495804448062313  29.8849591608408  48.155393750562304  -8.348094226532991  -10.954600131157909  39.07151806420269  36.796854276171764  -30.54761068753589  24.401059584895712  120.000000
0.7439999999999996  0.000000  0.000000  0.000000  -41.81862730378504  7.9519931118911735  31.32939946038845  48.243104368374325  -8.348094258830328  -11.123667591680826  38.833895060684945  38.15844626889696  -31.01437673581435  24.248214698770816  120.000000
0.7749999999999995  0.000000  0.000000  0.000000  -42.36373062257711  8.38853143966474  32.81253110795132  48.36570063754862  -8.348094220292742  -11.251896597928297  38.67797917201145  39.458586535823706  -31.558418631385265  24.04983624907016  120.000000
0.8059999999999995  0.000000  0.000000  0.000000  -43.032679142396276  8.795013604238738  34.323016495990124  48.53591297287117  -8.348094259106427  -11.324581940235309  38.59702463158157  40.7061728101616  -32.2002443615752  23.801770088325153  120.000000
0.8369999999999994  0.000000  0.000000  0.000000  -43.815528494380175  9.16613967080261  35.84733885778449  48.76052501326958  -8.34809422529662  -11.32796698670824  38.57578248778647  41.90801047189046  -32.93485628949515  23.503992035938893  120.000000
0.8679999999999994  0.000000  0.000000  0.000000  -44.692121624498874  9.502052543663757  37.370229269662374  49.03936137585362  -8.348094259097534  -11.251033603708098  38.58920944326598  43.06785758475419  -33.72986594388732  23.161184524567624  120.000000
0.8989999999999994  0.000000  0.000000  0.000000  -45.63715422770979  9.806555727432286  38.87717121900684  49.36722218871915  -8.348094205628234  -11.086712970397373  38.60271838223029  44.18445997969457  -34.533197920143934  22.78173788351796  120.000000
0.9299999999999994  0.000000  0.000000  0.000000  -46.62581174753719  10.084659629640383  40.35457145307773  49.73561585517704  -8.34809425893802  -10.832590450881478  38.57406454304807  45.252355668609916  -35.28739398550758  22.376790248694068  120.000000
0.9609999999999993  0.000000  0.000000  0.000000  -47.63888127956468  10.341039515746953  41.79076867216618  50.13557788640457  -8.34790305629393  -10.490147173300876  38.45938596595779  46.26215776182761  -35.94525578047729  21.958834983343866  120.000000
0.9919999999999993  0.000000  0.000000  0.000000  -48.665016248266305  10.580603210921414  43.17611669681402  50.559458349315584  -8.348094259261316  -10.06132176067643  38.22257415668649  47.20276825339536  -36.48132824029961  21.54103707831581  120.000000
1.0229999999999992  0.000000  0.000000  0.000000  -49.699442667252114  10.806421958849684  44.49922288420989  51.004348307680246  -8.341741707935151  -9.54396340765063  37.8476161675015  48.06175956274052  -36.896759199677255  21.135805923910677  120.000000
1.0539999999999994  0.000000  0.000000  0.000000  -50.740118189967774  11.016187411960678  45.739263857284946  51.47150987320891  -8.299472216624794  -8.928126501966835  37.347675733490085  48.821814653466696  -37.2158892715485  20.752906107588853  120.000000
1.0849999999999993  0.000000  0.000000  0.000000  -51.783016220354725  11.207300717631039  46.876084263546694  51.96047890388099  -8.191442124579256  -8.206223104306922  36.75236430540926  49.467253595699034  -37.476631679375906  20.39959320938569  120.000000
1.1159999999999992  0.000000  0.000000  0.000000  -52.82139136887499  11.38276484431072  47.90133751381129  52.46522369562695  -8.01276277629001  -7.381756071672133  36.09353260128826  49.991344509687565  -37.718197996577864  20.078605431503533  120.000000
1.1469999999999991  0.000000  0.000000  0.000000  -53.84475317831337  11.547607974491882  48.81136812313001  52.97590284055314  -7.773997450928257  -6.4703538026682  35.40442114727221  50.396410731731535  -37.97101813846557  19.786442063397978  120.000000
